<svg xmlns="http://www.w3.org/2000/svg" width="80" height="80" fill="none"><g clip-path="url(#a)"><rect width="80" height="80" fill="#FE7700" rx="24.845"/><path fill="#FEE65F" d="M49.295 28.433a11.68 11.68 0 0 1 8.878.204c2.823 1.266 4.414 3.146 5.501 5.973.387-.058.776-.008 1.183-.051l.051.018c.418.04.803.018 1.178.05.636.064.91.181 1.117.824.924 1.527.315 2.35-1.423 2.04-.573-.176-1.13-.14-1.714-.086.02.985-.022 1.343-.111 2.314.25 1-.325 2.796-.698 3.719-1.23 3.044-4.418 5.24-7.657 5.622a13 13 0 0 1-1.152-.864c-.156-.013-1.189-.558-1.432-.673-1.783-.84-3.519-.961-5.443-1.228.001-.413-.426-1.685-.57-2.065 2.88 2.647 7.062 3.17 10.638 1.751 1.172-.454 2.217-1.287 3.043-2.22.185-.235.376-.463.526-.722.49-.649.923-1.617 1.145-2.398.082-.29.127-.648.211-.933l.02-.066c.273-.61.095-2.333.135-3.045-.04.711.138 2.434-.135 3.045l-.02.066c-.084.285-.13.644-.212.933-.221.78-.654 1.75-1.145 2.398.023-.23.442-.81.56-1.108.55-1.375.647-2.856.623-4.317-.075-4.496-4.298-7.936-8.724-7.693-2.483-.108-4.594.49-6.454 2.207a8 8 0 0 0-2.59 5.577c-.05 1.438.26 2.692.872 3.985l-.064.119-.111.03c-.166-.069-.28-.236-.401-.377-.147-.096-.636-.49-.733-.617a2.9 2.9 0 0 1-.616-.567c-.56-.593-.654-1.173-.736-1.936-1.574-.783-3.042-.875-4.75-.358-.292.089-.922.422-1.126.473-.178 1.36-.476 1.695-1.393 2.485l-.027.023-.216.186c-.084.059-.174.138-.261.192a1 1 0 0 1-.106.05l-.037.01h-.005c-.105.165-.305.458-.522.317l-.03-.103c.615-1.253.893-2.443.84-3.85a8.08 8.08 0 0 0-2.646-5.692c-1.881-1.738-3.984-2.256-6.476-2.154-.777-.087-1.861.096-2.635.317-3 .853-5.64 3.477-5.937 6.67-.15 1.62-.048 3.366.51 4.906.127.358.517.903.552 1.162.184.331.962 1.196 1.254 1.446 1.023.873 2.678 1.872 4.02 2.095 3.443.597 6.124.072 8.865-2.149-.148.41-.456 1.262-.376 1.692-.068.113-.107.147-.124.27-.535.15-1.17.11-1.73.187a13 13 0 0 0-4.067 1.257c-.24.122-.592.333-.829.415-.394.308-.855.595-1.267.897-.134-.053-.548-.125-.714-.16-2.345-.485-4.543-1.719-5.992-3.69a8.9 8.9 0 0 1-1.718-4.329c-.037-.316-.087-.743-.04-1.055.03-.72-.214-1.56-.079-2.48l.044.904-.043-.905v-.34c-.015.083-.026.268-.08.287-.486.17-.965-.017-1.52.185-.479.044-.978.167-1.426-.074-.813-.44-.436-1.34-.082-1.94.145-.567.483-.764 1.027-.87q.678-.03 1.358-.042l.094-.025c.306.018.753.021 1.036.062.246-.61.473-1.195.79-1.772 1.044-1.903 2.869-3.451 4.856-4.294 2.684-1.137 6.064-1.201 8.77-.098 2.603 1.061 4.641 2.989 5.711 5.6.091.223.233.582.263.818q.13.376.245.757c.51-.24.923-.379 1.467-.523.881-.197 1.309-.256 2.212-.197.805-.026 1.803.324 2.524.663.075-.146.209-.693.271-.886.101-.309.18-.507.312-.81a10.1 10.1 0 0 1 5.693-5.439"/><path fill="#4E1801" fill-rule="evenodd" d="M47.573 46.295c1.924.267 3.66.389 5.443 1.228.243.114 1.276.66 1.432.673.267.23.856.677 1.152.864 2.774 2.107 5.059 3.296 8.701 2.832 1.928-.246 4.028-1.091 5.477-2.413.575-.529.928-.973 1.34-1.635.193-.311.727-1.45 1.166-1.345.673.16.803 1.308.864 1.884.365 2.831-1.145 5.367-2.852 7.518-4.082 4.357-9.617 5.87-15.443 6.118-2.682.115-7.052-.206-9.542-1.385l-.59.356c-2.138 1.251-5.124 1.58-7.501.954a9 9 0 0 1-2.156-.876c-.193-.122-.38-.255-.569-.385-.172.043-.432.146-.608.21-2.663.966-5.49 1.206-8.31 1.134-4.798-.123-9.765-1.181-13.686-4.09-.817-.607-1.49-1.316-2.187-2.05-.245-.39-.627-.794-.891-1.191-.938-1.425-1.755-2.82-1.974-4.562-.084-.668-.146-3.458.89-3.64.471-.084 1.104 1.272 1.387 1.664.315.437.663.853 1.058 1.287 1.662 1.34 3.053 2.02 5.207 2.395 2.116.37 4.336.052 6.245-.952.992-.522 1.788-1.162 2.69-1.802.412-.303.873-.59 1.267-.897.237-.082.589-.293.83-.415a13 13 0 0 1 4.065-1.257c.56-.077 1.196-.038 1.731-.187.043.295.014.79.034 1.109.208 3.33 3.032 5.717 6.16 6.312a8.2 8.2 0 0 0 6.123-1.297c2.078-1.44 3.186-3.568 3.03-6.105zm-7.709 10.186c-.934 1.492-2.307 2.523-3.796 3.426l.479.226c2.289.966 4.417.762 6.674-.083l.424-.2c-1.33-.77-2.174-1.327-3.186-2.562-.248-.303-.393-.54-.595-.806" clip-rule="evenodd"/><path fill="#fff" d="M45.496 41.69c-.612-1.294-.922-2.547-.872-3.985a8 8 0 0 1 2.59-5.577c1.86-1.716 3.971-2.315 6.454-2.207 2.223.328 4.166 1.19 5.551 3.04a8.66 8.66 0 0 1 1.638 6.488 7.95 7.95 0 0 1-3.145 5.21 8.16 8.16 0 0 1-6.121 1.491 8.14 8.14 0 0 1-5.352-3.283c-.209-.29-.626-1.03-.743-1.177"/><path fill="#4E1801" d="M50.253 33.578a4.854 4.854 0 1 1 1.111 9.644 4.854 4.854 0 0 1-1.11-9.644"/><path fill="#330D00" d="M47.975 37.221a2 2 0 0 1-.104-.25c-.455-1.302 1.199-2.427 2.487-1.699.46-.203 1.334-.048 1.805.132.845.32 1.52.973 1.87 1.806.314.745.27 1.751-.056 2.493a3.22 3.22 0 0 1-1.793 1.717c-.852.331-1.802.3-2.631-.086a3.16 3.16 0 0 1-1.646-1.82c-.206-.58-.328-1.788.068-2.293"/><path fill="#fff" d="M47.975 37.221a2 2 0 0 1-.104-.25c-.454-1.302 1.2-2.427 2.487-1.699 1.443 1.548-1.159 3.512-2.383 1.95M26.08 29.92c2.492-.1 4.595.416 6.476 2.155a8.08 8.08 0 0 1 2.646 5.693c.053 1.405-.225 2.596-.84 3.849q-.227.45-.52.86c-2.755 3.927-7.646 5.035-11.662 2.22-3.692-2.587-4.29-7.896-1.713-11.479 1.412-1.965 3.25-2.915 5.613-3.298"/><path fill="#4E1801" d="M28.73 33.528a4.858 4.858 0 1 1 1.176 9.645 4.858 4.858 0 0 1-1.176-9.645"/><path fill="#330D00" d="M26.5 37.287c-.875-1.475.897-2.865 2.345-2.015.182-.169.561-.183.799-.166.869.066 1.735.45 2.31 1.105.567.654.849 1.508.782 2.372a3.24 3.24 0 0 1-1.086 2.22c-.637.555-1.578.848-2.416.786a3.27 3.27 0 0 1-2.242-1.146c-.608-.706-.84-1.537-.745-2.454.027-.255.05-.535.253-.702"/><path fill="#fff" d="M26.5 37.287c-.875-1.475.897-2.865 2.345-2.015 1.338 1.564-1.056 3.358-2.345 2.015"/><path fill="#E65D0D" d="M15.851 39.852c.765 4.87 4.879 8.145 9.732 8.337-.394.307-.855.594-1.267.897-.134-.053-.548-.126-.714-.16-2.345-.485-4.543-1.719-5.992-3.69a8.9 8.9 0 0 1-1.718-4.329c-.037-.316-.087-.743-.04-1.055m48.103-.133c.25 1-.325 2.796-.698 3.719-1.23 3.044-4.418 5.24-7.657 5.622a13 13 0 0 1-1.152-.864c.497-.068.989-.106 1.481-.199a10.3 10.3 0 0 0 4.972-2.408c1.585-1.406 2.922-3.73 3.054-5.87"/><path fill="#E65D0D" d="M44.13 37.266c.546-8.171 11.337-11.005 16.517-5.1 2.139 2.438 2.14 4.435 1.939 7.476l-.02.066c-.084.285-.13.644-.212.933-.221.78-.654 1.75-1.145 2.398.023-.23.442-.81.56-1.108.55-1.375.647-2.857.623-4.317-.075-4.496-4.299-7.936-8.724-7.693-2.483-.108-4.594.49-6.454 2.207a8 8 0 0 0-2.59 5.577c-.05 1.438.26 2.691.872 3.985l-.064.119-.111.03c-.166-.069-.28-.236-.401-.377-.147-.097-.635-.49-.733-.617 0 0-.014-.002 0 0 .053-.005-.014-.002 0 0 .098.128.586.52.733.617-.157-.363-.28-.745-.407-1.12-.27-1.006-.453-2.032-.383-3.076m-26.165-3.275c2.886-5.742 11.228-6.648 15.496-1.964 1.04 1.143 1.58 2.326 2.025 3.798.298 2.026.288 3.646-.572 5.579-.105.164-.305.457-.522.316l-.03-.104c.615-1.252.893-2.443.84-3.848a8.08 8.08 0 0 0-2.646-5.693c-1.881-1.739-3.984-2.256-6.476-2.155-.777-.086-1.861.097-2.635.317-3 .854-5.64 3.478-5.937 6.671-.15 1.62-.048 3.365.51 4.906.127.358.517.903.552 1.162-.11-.134-.24-.339-.34-.486-.988-1.916-1.098-3.1-1.099-5.182.047-1.25.267-2.189.834-3.317m19.014 3.239c1.907-1.02 3.909-1.095 5.82-.07l.05.042c-.011.36-.023.782-.013 1.14-1.575-.783-3.043-.875-4.752-.358-.291.089-.921.422-1.125.473.022-.448.035-.778.02-1.227m-24.313-1.74c.05.295.059.462.307.677.328.285 1.415.2 1.77.05.935-.042 1.12-.22 1.03.814-.014.083-.025.268-.078.286-.488.17-.966-.016-1.52.186-.48.044-.98.167-1.427-.075-.813-.44-.436-1.34-.082-1.939m54.537-.038c.924 1.527.316 2.35-1.422 2.04-.573-.176-1.131-.14-1.715-.086a14 14 0 0 0-.062-1.136c.83-.12 1.34-.012 2.173.066.7.065.996-.227 1.026-.884"/><path fill="#4E1801" fill-rule="evenodd" d="M21.522 19.162c2.706-2.246 4.931-3.142 8.414-2.863 2.168.41 3.888 1.269 5.21 3.096 1.169 1.614.456 3.19-1.372 3.73-.933.239-2.383-.119-3.375-.22-2.564-.263-4.675.207-6.996 1.27-1.266.58-3.06 1.834-4.432 1.886-.609 0-.812-.127-.977-.721-.12-1.87.864-3.256 1.955-4.629.168-.12 1.264-1.293 1.573-1.55m10.972.268c-.556-1.74-2.934-2.299-4.538-2.05-2.222.232-4.544 1.3-5.72 3.274 1.488-.79 2.587-1.266 4.287-1.502 1.285-.136 2.538-.183 3.759.34.639.247 1.483.973 2.117.328a.48.48 0 0 0 .095-.39m17.694-3.13c3.416-.24 5.675.737 8.305 2.96.543.46.987 1.026 1.491 1.495 1.213 1.467 1.92 2.498 1.923 4.464-.082.587-.223.754-.818.85-1.552-.04-3.277-1.305-4.702-1.971-2.708-1.266-5.501-1.596-8.43-1.006-.722.145-1.278.204-1.987-.002-1.384-.437-2.295-1.81-1.549-3.212.31-.584.697-.964 1.165-1.424 1.283-1.248 2.822-1.947 4.602-2.154m3.432 1.434a7.6 7.6 0 0 0-3.163-.353c-1.033.11-2.058.463-2.745 1.276-.534.633-.474 1.68.582 1.41.452-.117.892-.47 1.34-.616 1.536-.574 3.428-.443 4.988-.023 1.166.338 1.851.678 2.938 1.204-.729-1.458-2.45-2.407-3.94-2.898" clip-rule="evenodd"/><path fill="#E65D0D" d="m52.626.002 2.197.003c-.356.783-.794 1.525-1.14 2.323-1.227 2.828-2.205 5.753-2.727 8.797-.093.54-.206 1.22-.223 1.757-1.854.216-3.459.944-4.795 2.244.04-.584.08-.995.241-1.557.511-4.614 2.037-9.3 3.93-13.524l.035-.012c.267-.06 2.01-.016 2.482-.03M28.056.002l-2.197.003c.356.783.794 1.525 1.14 2.323 1.227 2.828 2.205 5.753 2.727 8.797.093.54.206 1.22.223 1.757 1.854.216 3.459.944 4.795 2.244-.04-.584-.08-.995-.241-1.557-.512-4.614-2.037-9.3-3.93-13.524l-.035-.012c-.267-.06-2.011-.016-2.482-.03"/><path fill="#E85F14" d="M70.313 55.873c-.167 2.052-.554 3.595-1.286 5.502-1.487 3.299-3.221 5.456-6.065 7.729-.566.453-1.23.874-1.755 1.292q.339.987.642 1.986c-.85.341-1.8.655-2.67.938.469 1.836 1.192 4.888 1.485 6.68H19.258c.134-.528.231-1.323.351-1.875.24-1.085.476-2.179.765-3.253.096-.351.28-1.243.432-1.552-.844-.214-1.822-.623-2.67-.898.097-.437.48-1.521.631-2.021-.2-.162-.638-.442-.877-.612a24 24 0 0 1-1.45-1.12c-2.975-2.462-4.9-5.31-6.097-8.969-.014-.108-.23-.948-.272-1.133a16 16 0 0 1-.383-2.708c.698.737 1.37 1.447 2.188 2.055 3.923 2.916 8.893 3.977 13.694 4.1 2.82.073 5.65-.168 8.313-1.136.177-.065.437-.168.61-.211.188.13.375.263.568.386a9 9 0 0 0 2.157.879c2.379.627 5.366.297 7.506-.958l.59-.356c2.491 1.182 6.864 1.504 9.547 1.389 5.83-.25 11.368-1.765 15.452-6.134"/><path fill="#C53200" d="M18.525 70.317c.62.36 1.202.796 1.835 1.145 3.423 1.89 7.876 3.529 11.75 4.203l-.255.12c-3.344-.326-7.9-1.338-11.094-2.393-.16.411-.377 1.334-.476 1.75a104 104 0 0 0-.85 4.01c-.05.266-.098.555-.147.848h-3.06c.083-.539.185-1.074.275-1.61.358-2.139.909-4.173 1.442-6.26.143-.51.447-1.38.58-1.813m42.705 0q.31.893.59 1.796l.009-.004c.61 2.106 1.377 5.59 1.655 7.891h-2.818c-.33-1.987-1.016-4.844-1.51-6.683-3.698 1.132-7.245 1.968-11.112 2.387-.572.063-1.962.237-2.497.238.195-.146 1.38-.256 1.712-.313 4.858-.844 9.838-2.603 13.97-5.312"/></g><defs><clipPath id="a"><rect width="80" height="80" fill="#fff" rx="24.845"/></clipPath></defs></svg>